<svg xmlns="http://www.w3.org/2000/svg" viewBox="0 0 1125.00 355.00">
  <style>
    .key-bg { fill: #f5f5f5; stroke: #d4d4d4; stroke-width: 1; }
    .key-index { fill: #171717; font-family: ui-monospace, SFMono-Regular, "SF Mono", Menlo, Consolas, "Liberation Mono", monospace; font-weight: 700; text-anchor: middle; dominant-baseline: central; }
    .key-part { font-family: system-ui, -apple-system, BlinkMacSystemFont, "Segoe UI", Roboto, sans-serif; text-anchor: middle; dominant-baseline: central; }
    @media (prefers-color-scheme: dark) {
      .key-bg { fill: #2a2a2a; stroke: #404040; }
      .key-index { fill: #e5e5e5; }
    }
    .key-bg.part-0 { stroke: #f59e0b; }
    .key-part.part-0 { fill: #f59e0b; }
    .key-bg.part-1 { stroke: #14b8a6; }
    .key-part.part-1 { fill: #14b8a6; }
  </style>
  <g>
    <path class="key-bg part-0" d="M 26.00,57.00 L 84.00,57.00 Q 88.00,57.00 88.00,61.00 L 88.00,119.00 Q 88.00,123.00 84.00,123.00 L 26.00,123.00 Q 22.00,123.00 22.00,119.00 L 22.00,61.00 Q 22.00,57.00 26.00,57.00 Z" />
    <path class="key-bg part-0" d="M 96.00,57.00 L 154.00,57.00 Q 158.00,57.00 158.00,61.00 L 158.00,119.00 Q 158.00,123.00 154.00,123.00 L 96.00,123.00 Q 92.00,123.00 92.00,119.00 L 92.00,61.00 Q 92.00,57.00 96.00,57.00 Z" />
    <path class="key-bg part-0" d="M 166.00,39.50 L 224.00,39.50 Q 228.00,39.50 228.00,43.50 L 228.00,101.50 Q 228.00,105.50 224.00,105.50 L 166.00,105.50 Q 162.00,105.50 162.00,101.50 L 162.00,43.50 Q 162.00,39.50 166.00,39.50 Z" />
    <path class="key-bg part-0" d="M 236.00,22.00 L 294.00,22.00 Q 298.00,22.00 298.00,26.00 L 298.00,84.00 Q 298.00,88.00 294.00,88.00 L 236.00,88.00 Q 232.00,88.00 232.00,84.00 L 232.00,26.00 Q 232.00,22.00 236.00,22.00 Z" />
    <path class="key-bg part-0" d="M 306.00,39.50 L 364.00,39.50 Q 368.00,39.50 368.00,43.50 L 368.00,101.50 Q 368.00,105.50 364.00,105.50 L 306.00,105.50 Q 302.00,105.50 302.00,101.50 L 302.00,43.50 Q 302.00,39.50 306.00,39.50 Z" />
    <path class="key-bg part-0" d="M 376.00,39.50 L 434.00,39.50 Q 438.00,39.50 438.00,43.50 L 438.00,101.50 Q 438.00,105.50 434.00,105.50 L 376.00,105.50 Q 372.00,105.50 372.00,101.50 L 372.00,43.50 Q 372.00,39.50 376.00,39.50 Z" />
    <path class="key-bg part-1" d="M 691.00,39.50 L 749.00,39.50 Q 753.00,39.50 753.00,43.50 L 753.00,101.50 Q 753.00,105.50 749.00,105.50 L 691.00,105.50 Q 687.00,105.50 687.00,101.50 L 687.00,43.50 Q 687.00,39.50 691.00,39.50 Z" />
    <path class="key-bg part-1" d="M 761.00,39.50 L 819.00,39.50 Q 823.00,39.50 823.00,43.50 L 823.00,101.50 Q 823.00,105.50 819.00,105.50 L 761.00,105.50 Q 757.00,105.50 757.00,101.50 L 757.00,43.50 Q 757.00,39.50 761.00,39.50 Z" />
    <path class="key-bg part-1" d="M 831.00,22.00 L 889.00,22.00 Q 893.00,22.00 893.00,26.00 L 893.00,84.00 Q 893.00,88.00 889.00,88.00 L 831.00,88.00 Q 827.00,88.00 827.00,84.00 L 827.00,26.00 Q 827.00,22.00 831.00,22.00 Z" />
    <path class="key-bg part-1" d="M 901.00,39.50 L 959.00,39.50 Q 963.00,39.50 963.00,43.50 L 963.00,101.50 Q 963.00,105.50 959.00,105.50 L 901.00,105.50 Q 897.00,105.50 897.00,101.50 L 897.00,43.50 Q 897.00,39.50 901.00,39.50 Z" />
    <path class="key-bg part-1" d="M 971.00,57.00 L 1029.00,57.00 Q 1033.00,57.00 1033.00,61.00 L 1033.00,119.00 Q 1033.00,123.00 1029.00,123.00 L 971.00,123.00 Q 967.00,123.00 967.00,119.00 L 967.00,61.00 Q 967.00,57.00 971.00,57.00 Z" />
    <path class="key-bg part-1" d="M 1041.00,57.00 L 1099.00,57.00 Q 1103.00,57.00 1103.00,61.00 L 1103.00,119.00 Q 1103.00,123.00 1099.00,123.00 L 1041.00,123.00 Q 1037.00,123.00 1037.00,119.00 L 1037.00,61.00 Q 1037.00,57.00 1041.00,57.00 Z" />
    <path class="key-bg part-0" d="M 26.00,127.00 L 84.00,127.00 Q 88.00,127.00 88.00,131.00 L 88.00,189.00 Q 88.00,193.00 84.00,193.00 L 26.00,193.00 Q 22.00,193.00 22.00,189.00 L 22.00,131.00 Q 22.00,127.00 26.00,127.00 Z" />
    <path class="key-bg part-0" d="M 96.00,127.00 L 154.00,127.00 Q 158.00,127.00 158.00,131.00 L 158.00,189.00 Q 158.00,193.00 154.00,193.00 L 96.00,193.00 Q 92.00,193.00 92.00,189.00 L 92.00,131.00 Q 92.00,127.00 96.00,127.00 Z" />
    <path class="key-bg part-0" d="M 166.00,109.50 L 224.00,109.50 Q 228.00,109.50 228.00,113.50 L 228.00,171.50 Q 228.00,175.50 224.00,175.50 L 166.00,175.50 Q 162.00,175.50 162.00,171.50 L 162.00,113.50 Q 162.00,109.50 166.00,109.50 Z" />
    <path class="key-bg part-0" d="M 236.00,92.00 L 294.00,92.00 Q 298.00,92.00 298.00,96.00 L 298.00,154.00 Q 298.00,158.00 294.00,158.00 L 236.00,158.00 Q 232.00,158.00 232.00,154.00 L 232.00,96.00 Q 232.00,92.00 236.00,92.00 Z" />
    <path class="key-bg part-0" d="M 306.00,109.50 L 364.00,109.50 Q 368.00,109.50 368.00,113.50 L 368.00,171.50 Q 368.00,175.50 364.00,175.50 L 306.00,175.50 Q 302.00,175.50 302.00,171.50 L 302.00,113.50 Q 302.00,109.50 306.00,109.50 Z" />
    <path class="key-bg part-0" d="M 376.00,109.50 L 434.00,109.50 Q 438.00,109.50 438.00,113.50 L 438.00,171.50 Q 438.00,175.50 434.00,175.50 L 376.00,175.50 Q 372.00,175.50 372.00,171.50 L 372.00,113.50 Q 372.00,109.50 376.00,109.50 Z" />
    <path class="key-bg part-1" d="M 691.00,109.50 L 749.00,109.50 Q 753.00,109.50 753.00,113.50 L 753.00,171.50 Q 753.00,175.50 749.00,175.50 L 691.00,175.50 Q 687.00,175.50 687.00,171.50 L 687.00,113.50 Q 687.00,109.50 691.00,109.50 Z" />
    <path class="key-bg part-1" d="M 761.00,109.50 L 819.00,109.50 Q 823.00,109.50 823.00,113.50 L 823.00,171.50 Q 823.00,175.50 819.00,175.50 L 761.00,175.50 Q 757.00,175.50 757.00,171.50 L 757.00,113.50 Q 757.00,109.50 761.00,109.50 Z" />
    <path class="key-bg part-1" d="M 831.00,92.00 L 889.00,92.00 Q 893.00,92.00 893.00,96.00 L 893.00,154.00 Q 893.00,158.00 889.00,158.00 L 831.00,158.00 Q 827.00,158.00 827.00,154.00 L 827.00,96.00 Q 827.00,92.00 831.00,92.00 Z" />
    <path class="key-bg part-1" d="M 901.00,109.50 L 959.00,109.50 Q 963.00,109.50 963.00,113.50 L 963.00,171.50 Q 963.00,175.50 959.00,175.50 L 901.00,175.50 Q 897.00,175.50 897.00,171.50 L 897.00,113.50 Q 897.00,109.50 901.00,109.50 Z" />
    <path class="key-bg part-1" d="M 971.00,127.00 L 1029.00,127.00 Q 1033.00,127.00 1033.00,131.00 L 1033.00,189.00 Q 1033.00,193.00 1029.00,193.00 L 971.00,193.00 Q 967.00,193.00 967.00,189.00 L 967.00,131.00 Q 967.00,127.00 971.00,127.00 Z" />
    <path class="key-bg part-1" d="M 1041.00,127.00 L 1099.00,127.00 Q 1103.00,127.00 1103.00,131.00 L 1103.00,189.00 Q 1103.00,193.00 1099.00,193.00 L 1041.00,193.00 Q 1037.00,193.00 1037.00,189.00 L 1037.00,131.00 Q 1037.00,127.00 1041.00,127.00 Z" />
    <path class="key-bg part-0" d="M 26.00,197.00 L 84.00,197.00 Q 88.00,197.00 88.00,201.00 L 88.00,259.00 Q 88.00,263.00 84.00,263.00 L 26.00,263.00 Q 22.00,263.00 22.00,259.00 L 22.00,201.00 Q 22.00,197.00 26.00,197.00 Z" />
    <path class="key-bg part-0" d="M 96.00,197.00 L 154.00,197.00 Q 158.00,197.00 158.00,201.00 L 158.00,259.00 Q 158.00,263.00 154.00,263.00 L 96.00,263.00 Q 92.00,263.00 92.00,259.00 L 92.00,201.00 Q 92.00,197.00 96.00,197.00 Z" />
    <path class="key-bg part-0" d="M 166.00,179.50 L 224.00,179.50 Q 228.00,179.50 228.00,183.50 L 228.00,241.50 Q 228.00,245.50 224.00,245.50 L 166.00,245.50 Q 162.00,245.50 162.00,241.50 L 162.00,183.50 Q 162.00,179.50 166.00,179.50 Z" />
    <path class="key-bg part-0" d="M 236.00,162.00 L 294.00,162.00 Q 298.00,162.00 298.00,166.00 L 298.00,224.00 Q 298.00,228.00 294.00,228.00 L 236.00,228.00 Q 232.00,228.00 232.00,224.00 L 232.00,166.00 Q 232.00,162.00 236.00,162.00 Z" />
    <path class="key-bg part-0" d="M 306.00,179.50 L 364.00,179.50 Q 368.00,179.50 368.00,183.50 L 368.00,241.50 Q 368.00,245.50 364.00,245.50 L 306.00,245.50 Q 302.00,245.50 302.00,241.50 L 302.00,183.50 Q 302.00,179.50 306.00,179.50 Z" />
    <path class="key-bg part-0" d="M 376.00,179.50 L 434.00,179.50 Q 438.00,179.50 438.00,183.50 L 438.00,241.50 Q 438.00,245.50 434.00,245.50 L 376.00,245.50 Q 372.00,245.50 372.00,241.50 L 372.00,183.50 Q 372.00,179.50 376.00,179.50 Z" />
    <path class="key-bg part-1" d="M 691.00,179.50 L 749.00,179.50 Q 753.00,179.50 753.00,183.50 L 753.00,241.50 Q 753.00,245.50 749.00,245.50 L 691.00,245.50 Q 687.00,245.50 687.00,241.50 L 687.00,183.50 Q 687.00,179.50 691.00,179.50 Z" />
    <path class="key-bg part-1" d="M 761.00,179.50 L 819.00,179.50 Q 823.00,179.50 823.00,183.50 L 823.00,241.50 Q 823.00,245.50 819.00,245.50 L 761.00,245.50 Q 757.00,245.50 757.00,241.50 L 757.00,183.50 Q 757.00,179.50 761.00,179.50 Z" />
    <path class="key-bg part-1" d="M 831.00,162.00 L 889.00,162.00 Q 893.00,162.00 893.00,166.00 L 893.00,224.00 Q 893.00,228.00 889.00,228.00 L 831.00,228.00 Q 827.00,228.00 827.00,224.00 L 827.00,166.00 Q 827.00,162.00 831.00,162.00 Z" />
    <path class="key-bg part-1" d="M 901.00,179.50 L 959.00,179.50 Q 963.00,179.50 963.00,183.50 L 963.00,241.50 Q 963.00,245.50 959.00,245.50 L 901.00,245.50 Q 897.00,245.50 897.00,241.50 L 897.00,183.50 Q 897.00,179.50 901.00,179.50 Z" />
    <path class="key-bg part-1" d="M 971.00,197.00 L 1029.00,197.00 Q 1033.00,197.00 1033.00,201.00 L 1033.00,259.00 Q 1033.00,263.00 1029.00,263.00 L 971.00,263.00 Q 967.00,263.00 967.00,259.00 L 967.00,201.00 Q 967.00,197.00 971.00,197.00 Z" />
    <path class="key-bg part-1" d="M 1041.00,197.00 L 1099.00,197.00 Q 1103.00,197.00 1103.00,201.00 L 1103.00,259.00 Q 1103.00,263.00 1099.00,263.00 L 1041.00,263.00 Q 1037.00,263.00 1037.00,259.00 L 1037.00,201.00 Q 1037.00,197.00 1041.00,197.00 Z" />
    <path class="key-bg part-0" d="M 166.00,249.50 L 224.00,249.50 Q 228.00,249.50 228.00,253.50 L 228.00,311.50 Q 228.00,315.50 224.00,315.50 L 166.00,315.50 Q 162.00,315.50 162.00,311.50 L 162.00,253.50 Q 162.00,249.50 166.00,249.50 Z" />
    <path class="key-bg part-0" d="M 236.00,232.00 L 294.00,232.00 Q 298.00,232.00 298.00,236.00 L 298.00,294.00 Q 298.00,298.00 294.00,298.00 L 236.00,298.00 Q 232.00,298.00 232.00,294.00 L 232.00,236.00 Q 232.00,232.00 236.00,232.00 Z" />
    <path class="key-bg part-0" d="M 323.50,267.00 L 381.50,267.00 Q 385.50,267.00 385.50,271.00 L 385.50,329.00 Q 385.50,333.00 381.50,333.00 L 323.50,333.00 Q 319.50,333.00 319.50,329.00 L 319.50,271.00 Q 319.50,267.00 323.50,267.00 Z" />
    <path class="key-bg part-0" d="M 393.50,267.00 L 451.50,267.00 Q 455.50,267.00 455.50,271.00 L 455.50,329.00 Q 455.50,333.00 451.50,333.00 L 393.50,333.00 Q 389.50,333.00 389.50,329.00 L 389.50,271.00 Q 389.50,267.00 393.50,267.00 Z" />
    <path class="key-bg part-0" d="M 463.50,267.00 L 521.50,267.00 Q 525.50,267.00 525.50,271.00 L 525.50,329.00 Q 525.50,333.00 521.50,333.00 L 463.50,333.00 Q 459.50,333.00 459.50,329.00 L 459.50,271.00 Q 459.50,267.00 463.50,267.00 Z" />
    <path class="key-bg part-1" d="M 603.50,267.00 L 661.50,267.00 Q 665.50,267.00 665.50,271.00 L 665.50,329.00 Q 665.50,333.00 661.50,333.00 L 603.50,333.00 Q 599.50,333.00 599.50,329.00 L 599.50,271.00 Q 599.50,267.00 603.50,267.00 Z" />
    <path class="key-bg part-1" d="M 673.50,267.00 L 731.50,267.00 Q 735.50,267.00 735.50,271.00 L 735.50,329.00 Q 735.50,333.00 731.50,333.00 L 673.50,333.00 Q 669.50,333.00 669.50,329.00 L 669.50,271.00 Q 669.50,267.00 673.50,267.00 Z" />
    <path class="key-bg part-1" d="M 743.50,267.00 L 801.50,267.00 Q 805.50,267.00 805.50,271.00 L 805.50,329.00 Q 805.50,333.00 801.50,333.00 L 743.50,333.00 Q 739.50,333.00 739.50,329.00 L 739.50,271.00 Q 739.50,267.00 743.50,267.00 Z" />
    <path class="key-bg part-1" d="M 831.00,232.00 L 889.00,232.00 Q 893.00,232.00 893.00,236.00 L 893.00,294.00 Q 893.00,298.00 889.00,298.00 L 831.00,298.00 Q 827.00,298.00 827.00,294.00 L 827.00,236.00 Q 827.00,232.00 831.00,232.00 Z" />
    <path class="key-bg part-1" d="M 901.00,249.50 L 959.00,249.50 Q 963.00,249.50 963.00,253.50 L 963.00,311.50 Q 963.00,315.50 959.00,315.50 L 901.00,315.50 Q 897.00,315.50 897.00,311.50 L 897.00,253.50 Q 897.00,249.50 901.00,249.50 Z" />
  </g>
  <g>
    <text class="key-index" x="55.00" y="78.36" font-size="26">0</text>
    <text class="key-part part-0" x="55.00" y="105.64" font-size="18">left</text>
    <text class="key-index" x="125.00" y="78.36" font-size="26">1</text>
    <text class="key-part part-0" x="125.00" y="105.64" font-size="18">left</text>
    <text class="key-index" x="195.00" y="60.86" font-size="26">2</text>
    <text class="key-part part-0" x="195.00" y="88.14" font-size="18">left</text>
    <text class="key-index" x="265.00" y="43.36" font-size="26">3</text>
    <text class="key-part part-0" x="265.00" y="70.64" font-size="18">left</text>
    <text class="key-index" x="335.00" y="60.86" font-size="26">4</text>
    <text class="key-part part-0" x="335.00" y="88.14" font-size="18">left</text>
    <text class="key-index" x="405.00" y="60.86" font-size="26">5</text>
    <text class="key-part part-0" x="405.00" y="88.14" font-size="18">left</text>
    <text class="key-index" x="720.00" y="60.86" font-size="26">6</text>
    <text class="key-part part-1" x="720.00" y="88.14" font-size="18">right</text>
    <text class="key-index" x="790.00" y="60.86" font-size="26">7</text>
    <text class="key-part part-1" x="790.00" y="88.14" font-size="18">right</text>
    <text class="key-index" x="860.00" y="43.36" font-size="26">8</text>
    <text class="key-part part-1" x="860.00" y="70.64" font-size="18">right</text>
    <text class="key-index" x="930.00" y="60.86" font-size="26">9</text>
    <text class="key-part part-1" x="930.00" y="88.14" font-size="18">right</text>
    <text class="key-index" x="1000.00" y="78.36" font-size="26">10</text>
    <text class="key-part part-1" x="1000.00" y="105.64" font-size="18">right</text>
    <text class="key-index" x="1070.00" y="78.36" font-size="26">11</text>
    <text class="key-part part-1" x="1070.00" y="105.64" font-size="18">right</text>
    <text class="key-index" x="55.00" y="148.36" font-size="26">12</text>
    <text class="key-part part-0" x="55.00" y="175.64" font-size="18">left</text>
    <text class="key-index" x="125.00" y="148.36" font-size="26">13</text>
    <text class="key-part part-0" x="125.00" y="175.64" font-size="18">left</text>
    <text class="key-index" x="195.00" y="130.86" font-size="26">14</text>
    <text class="key-part part-0" x="195.00" y="158.14" font-size="18">left</text>
    <text class="key-index" x="265.00" y="113.36" font-size="26">15</text>
    <text class="key-part part-0" x="265.00" y="140.64" font-size="18">left</text>
    <text class="key-index" x="335.00" y="130.86" font-size="26">16</text>
    <text class="key-part part-0" x="335.00" y="158.14" font-size="18">left</text>
    <text class="key-index" x="405.00" y="130.86" font-size="26">17</text>
    <text class="key-part part-0" x="405.00" y="158.14" font-size="18">left</text>
    <text class="key-index" x="720.00" y="130.86" font-size="26">18</text>
    <text class="key-part part-1" x="720.00" y="158.14" font-size="18">right</text>
    <text class="key-index" x="790.00" y="130.86" font-size="26">19</text>
    <text class="key-part part-1" x="790.00" y="158.14" font-size="18">right</text>
    <text class="key-index" x="860.00" y="113.36" font-size="26">20</text>
    <text class="key-part part-1" x="860.00" y="140.64" font-size="18">right</text>
    <text class="key-index" x="930.00" y="130.86" font-size="26">21</text>
    <text class="key-part part-1" x="930.00" y="158.14" font-size="18">right</text>
    <text class="key-index" x="1000.00" y="148.36" font-size="26">22</text>
    <text class="key-part part-1" x="1000.00" y="175.64" font-size="18">right</text>
    <text class="key-index" x="1070.00" y="148.36" font-size="26">23</text>
    <text class="key-part part-1" x="1070.00" y="175.64" font-size="18">right</text>
    <text class="key-index" x="55.00" y="218.36" font-size="26">24</text>
    <text class="key-part part-0" x="55.00" y="245.64" font-size="18">left</text>
    <text class="key-index" x="125.00" y="218.36" font-size="26">25</text>
    <text class="key-part part-0" x="125.00" y="245.64" font-size="18">left</text>
    <text class="key-index" x="195.00" y="200.86" font-size="26">26</text>
    <text class="key-part part-0" x="195.00" y="228.14" font-size="18">left</text>
    <text class="key-index" x="265.00" y="183.36" font-size="26">27</text>
    <text class="key-part part-0" x="265.00" y="210.64" font-size="18">left</text>
    <text class="key-index" x="335.00" y="200.86" font-size="26">28</text>
    <text class="key-part part-0" x="335.00" y="228.14" font-size="18">left</text>
    <text class="key-index" x="405.00" y="200.86" font-size="26">29</text>
    <text class="key-part part-0" x="405.00" y="228.14" font-size="18">left</text>
    <text class="key-index" x="720.00" y="200.86" font-size="26">30</text>
    <text class="key-part part-1" x="720.00" y="228.14" font-size="18">right</text>
    <text class="key-index" x="790.00" y="200.86" font-size="26">31</text>
    <text class="key-part part-1" x="790.00" y="228.14" font-size="18">right</text>
    <text class="key-index" x="860.00" y="183.36" font-size="26">32</text>
    <text class="key-part part-1" x="860.00" y="210.64" font-size="18">right</text>
    <text class="key-index" x="930.00" y="200.86" font-size="26">33</text>
    <text class="key-part part-1" x="930.00" y="228.14" font-size="18">right</text>
    <text class="key-index" x="1000.00" y="218.36" font-size="26">34</text>
    <text class="key-part part-1" x="1000.00" y="245.64" font-size="18">right</text>
    <text class="key-index" x="1070.00" y="218.36" font-size="26">35</text>
    <text class="key-part part-1" x="1070.00" y="245.64" font-size="18">right</text>
    <text class="key-index" x="195.00" y="270.86" font-size="26">36</text>
    <text class="key-part part-0" x="195.00" y="298.14" font-size="18">left</text>
    <text class="key-index" x="265.00" y="253.36" font-size="26">37</text>
    <text class="key-part part-0" x="265.00" y="280.64" font-size="18">left</text>
    <text class="key-index" x="352.50" y="288.36" font-size="26">38</text>
    <text class="key-part part-0" x="352.50" y="315.64" font-size="18">left</text>
    <text class="key-index" x="422.50" y="288.36" font-size="26">39</text>
    <text class="key-part part-0" x="422.50" y="315.64" font-size="18">left</text>
    <text class="key-index" x="492.50" y="288.36" font-size="26">40</text>
    <text class="key-part part-0" x="492.50" y="315.64" font-size="18">left</text>
    <text class="key-index" x="632.50" y="288.36" font-size="26">41</text>
    <text class="key-part part-1" x="632.50" y="315.64" font-size="18">right</text>
    <text class="key-index" x="702.50" y="288.36" font-size="26">42</text>
    <text class="key-part part-1" x="702.50" y="315.64" font-size="18">right</text>
    <text class="key-index" x="772.50" y="288.36" font-size="26">43</text>
    <text class="key-part part-1" x="772.50" y="315.64" font-size="18">right</text>
    <text class="key-index" x="860.00" y="253.36" font-size="26">44</text>
    <text class="key-part part-1" x="860.00" y="280.64" font-size="18">right</text>
    <text class="key-index" x="930.00" y="270.86" font-size="26">45</text>
    <text class="key-part part-1" x="930.00" y="298.14" font-size="18">right</text>
  </g>
</svg>
